<svg width="216" height="216" viewBox="0 0 216 216" fill="none" xmlns="http://www.w3.org/2000/svg">
<rect width="216" height="216" fill="black" fill-opacity="0"/>
<circle cx="108" cy="108" r="103" stroke="#FF644C" stroke-width="10" stroke-linejoin="round"/>
<path d="M108.543 3.79901V79.7789M108.543 79.7789H155.759M108.543 79.7789H59.6985M108.543 211.658V141.648M108.543 141.648H155.759M108.543 141.648H59.6985" stroke="#FF644C" stroke-width="10" stroke-linejoin="round"/>
<path d="M30.6475 103.841C29.3942 103.841 28.4238 104.313 27.7363 105.259C27.0488 106.197 26.7051 107.507 26.7051 109.19C26.7051 112.692 28.0192 114.443 30.6475 114.443C31.7503 114.443 33.0859 114.168 34.6543 113.616V116.409C33.3652 116.946 31.9258 117.215 30.3359 117.215C28.0514 117.215 26.304 116.524 25.0938 115.142C23.8835 113.752 23.2783 111.761 23.2783 109.169C23.2783 107.536 23.5755 106.107 24.1699 104.883C24.7643 103.651 25.6165 102.709 26.7266 102.058C27.8438 101.399 29.1507 101.069 30.6475 101.069C32.1729 101.069 33.7054 101.438 35.2451 102.176L34.1709 104.883C33.5837 104.604 32.9928 104.36 32.3984 104.152C31.804 103.945 31.2204 103.841 30.6475 103.841ZM38.0059 117V101.295H41.3359V114.25H47.7061V117H38.0059ZM64.7002 109.126C64.7002 111.726 64.0557 113.724 62.7666 115.12C61.4775 116.517 59.6299 117.215 57.2236 117.215C54.8174 117.215 52.9697 116.517 51.6807 115.12C50.3916 113.724 49.7471 111.718 49.7471 109.104C49.7471 106.491 50.3916 104.496 51.6807 103.121C52.9769 101.739 54.8317 101.048 57.2451 101.048C59.6585 101.048 61.5026 101.743 62.7773 103.132C64.0592 104.521 64.7002 106.519 64.7002 109.126ZM53.2383 109.126C53.2383 110.881 53.5713 112.202 54.2373 113.09C54.9033 113.978 55.8988 114.422 57.2236 114.422C59.8805 114.422 61.209 112.657 61.209 109.126C61.209 105.588 59.8877 103.819 57.2451 103.819C55.9202 103.819 54.9212 104.267 54.248 105.162C53.5749 106.05 53.2383 107.371 53.2383 109.126ZM77.2256 112.639C77.2256 114.057 76.7135 115.174 75.6895 115.99C74.6725 116.807 73.2546 117.215 71.4355 117.215C69.7598 117.215 68.2773 116.9 66.9883 116.27V113.176C68.0482 113.648 68.9434 113.981 69.6738 114.175C70.4115 114.368 71.0846 114.465 71.6934 114.465C72.4238 114.465 72.9824 114.325 73.3691 114.046C73.763 113.767 73.96 113.351 73.96 112.8C73.96 112.492 73.874 112.22 73.7021 111.983C73.5303 111.74 73.276 111.507 72.9395 111.285C72.61 111.063 71.9333 110.709 70.9092 110.222C69.9495 109.771 69.2298 109.337 68.75 108.922C68.2702 108.507 67.887 108.023 67.6006 107.472C67.3141 106.92 67.1709 106.276 67.1709 105.538C67.1709 104.149 67.64 103.057 68.5781 102.262C69.5234 101.467 70.8268 101.069 72.4883 101.069C73.3047 101.069 74.0817 101.166 74.8193 101.359C75.5641 101.553 76.3411 101.825 77.1504 102.176L76.0762 104.765C75.2383 104.421 74.5436 104.181 73.9922 104.045C73.4479 103.909 72.9108 103.841 72.3809 103.841C71.7507 103.841 71.2673 103.988 70.9307 104.281C70.5941 104.575 70.4258 104.958 70.4258 105.431C70.4258 105.724 70.4938 105.982 70.6299 106.204C70.766 106.419 70.9808 106.63 71.2744 106.838C71.5752 107.038 72.2806 107.404 73.3906 107.934C74.8587 108.635 75.8649 109.341 76.4092 110.05C76.9535 110.752 77.2256 111.615 77.2256 112.639ZM89.1172 117H80.0723V101.295H89.1172V104.023H83.4023V107.472H88.7197V110.2H83.4023V114.25H89.1172V117ZM104.178 117H100.848V104.066H96.583V101.295H108.442V104.066H104.178V117ZM120.474 117L119.335 113.262H113.609L112.471 117H108.883L114.426 101.23H118.497L124.062 117H120.474ZM118.54 110.469C117.487 107.081 116.893 105.166 116.757 104.722C116.628 104.278 116.535 103.927 116.478 103.669C116.241 104.586 115.564 106.852 114.447 110.469H118.54ZM126.049 117V101.295H129.379V114.25H135.749V117H126.049ZM151.121 117H147.34L143.226 110.383L141.818 111.393V117H138.488V101.295H141.818V108.481L143.129 106.634L147.383 101.295H151.078L145.6 108.245L151.121 117ZM153.098 117V101.295H156.428V117H153.098ZM174.313 117H170.081L163.249 105.119H163.152C163.288 107.217 163.356 108.714 163.356 109.609V117H160.381V101.295H164.581L171.402 113.058H171.478C171.37 111.017 171.316 109.574 171.316 108.729V101.295H174.313V117ZM184.239 108.181H190.47V116.323C189.46 116.653 188.507 116.882 187.612 117.011C186.724 117.147 185.815 117.215 184.884 117.215C182.513 117.215 180.701 116.52 179.448 115.131C178.202 113.734 177.579 111.733 177.579 109.126C177.579 106.591 178.302 104.614 179.749 103.196C181.203 101.778 183.215 101.069 185.786 101.069C187.397 101.069 188.951 101.392 190.448 102.036L189.342 104.7C188.196 104.127 187.004 103.841 185.765 103.841C184.325 103.841 183.172 104.324 182.306 105.291C181.439 106.258 181.006 107.558 181.006 109.19C181.006 110.895 181.353 112.198 182.048 113.101C182.75 113.996 183.767 114.443 185.099 114.443C185.793 114.443 186.499 114.372 187.215 114.229V110.952H184.239V108.181Z" fill="white"/>
</svg>
