<svg width="216" height="216" viewBox="0 0 216 216" version="1.1" xmlns="http://www.w3.org/2000/svg" xmlns:xlink="http://www.w3.org/1999/xlink">
<title>Group 2.3</title>
<desc>Created using Figma</desc>
<g id="Canvas" transform="translate(847 254)">
<g id="Group 2.3">
<g id="Ellipse">
<mask id="mask0_outline_ins">
<use xlink:href="#path0_fill" fill="white" transform="translate(-847 -254)"/>
</mask>
<g mask="url(#mask0_outline_ins)">
<use xlink:href="#path1_stroke_2x" transform="translate(-847 -254)" fill="#852222"/>
</g>
</g>
<g id="Vector 2">
<use xlink:href="#path2_stroke" transform="translate(-787.302 -250.201)" fill="#852222"/>
</g>
<g id="CLOSE TALKING">
<use xlink:href="#path3_fill" transform="translate(-825 -161)" fill="#4F4F4F"/>
</g>
</g>
</g>
<defs>
<path id="path0_fill" d="M 216 108C 216 167.647 167.647 216 108 216C 48.3532 216 0 167.647 0 108C 0 48.3532 48.3532 0 108 0C 167.647 0 216 48.3532 216 108Z"/>
<path id="path1_stroke_2x" d="M 206 108C 206 162.124 162.124 206 108 206L 108 226C 173.17 226 226 173.17 226 108L 206 108ZM 108 206C 53.8761 206 10 162.124 10 108L -10 108C -10 173.17 42.8304 226 108 226L 108 206ZM 10 108C 10 53.8761 53.8761 10 108 10L 108 -10C 42.8304 -10 -10 42.8304 -10 108L 10 108ZM 108 10C 162.124 10 206 53.8761 206 108L 226 108C 226 42.8304 173.17 -10 108 -10L 108 10Z"/>
<path id="path2_stroke" d="M 43.8442 0L 43.8442 75.9799L 53.8442 75.9799L 53.8442 0L 43.8442 0ZM 48.8442 80.9799L 96.0603 80.9799L 96.0603 70.9799L 48.8442 70.9799L 48.8442 80.9799ZM 48.8442 70.9799L 0 70.9799L 0 80.9799L 48.8442 80.9799L 48.8442 70.9799ZM 53.8442 207.859L 53.8442 137.849L 43.8442 137.849L 43.8442 207.859L 53.8442 207.859ZM 48.8442 142.849L 96.0603 142.849L 96.0603 132.849L 48.8442 132.849L 48.8442 142.849ZM 48.8442 132.849L 0 132.849L 0 142.849L 48.8442 142.849L 48.8442 132.849Z"/>
<path id="path3_fill" d="M 8.64746 10.8408C 7.39421 10.8408 6.42383 11.3135 5.73633 12.2588C 5.04883 13.1969 4.70508 14.5075 4.70508 16.1904C 4.70508 19.6924 6.01921 21.4434 8.64746 21.4434C 9.75033 21.4434 11.0859 21.1676 12.6543 20.6162L 12.6543 23.4092C 11.3652 23.9463 9.92578 24.2148 8.33594 24.2148C 6.05143 24.2148 4.30404 23.5238 3.09375 22.1416C 1.88346 20.7523 1.27832 18.7614 1.27832 16.1689C 1.27832 14.5361 1.57552 13.1074 2.16992 11.8828C 2.76432 10.651 3.61654 9.70931 4.72656 9.05762C 5.84375 8.39876 7.15072 8.06934 8.64746 8.06934C 10.1729 8.06934 11.7054 8.43815 13.2451 9.17578L 12.1709 11.8828C 11.5837 11.6035 10.9928 11.36 10.3984 11.1523C 9.80404 10.9447 9.22038 10.8408 8.64746 10.8408ZM 16.0059 24L 16.0059 8.29492L 19.3359 8.29492L 19.3359 21.25L 25.7061 21.25L 25.7061 24L 16.0059 24ZM 42.7002 16.126C 42.7002 18.7256 42.0557 20.7236 40.7666 22.1201C 39.4775 23.5166 37.6299 24.2148 35.2236 24.2148C 32.8174 24.2148 30.9697 23.5166 29.6807 22.1201C 28.3916 20.7236 27.7471 18.7184 27.7471 16.1045C 27.7471 13.4906 28.3916 11.4961 29.6807 10.1211C 30.9769 8.73893 32.8317 8.04785 35.2451 8.04785C 37.6585 8.04785 39.5026 8.74251 40.7773 10.1318C 42.0592 11.5212 42.7002 13.5192 42.7002 16.126ZM 31.2383 16.126C 31.2383 17.8805 31.5713 19.2018 32.2373 20.0898C 32.9033 20.9779 33.8988 21.4219 35.2236 21.4219C 37.8805 21.4219 39.209 19.6566 39.209 16.126C 39.209 12.5882 37.8877 10.8193 35.2451 10.8193C 33.9202 10.8193 32.9212 11.2669 32.248 12.1621C 31.5749 13.0501 31.2383 14.3714 31.2383 16.126ZM 55.2256 19.6387C 55.2256 21.0566 54.7135 22.1738 53.6895 22.9902C 52.6725 23.8066 51.2546 24.2148 49.4355 24.2148C 47.7598 24.2148 46.2773 23.8997 44.9883 23.2695L 44.9883 20.1758C 46.0482 20.6484 46.9434 20.9814 47.6738 21.1748C 48.4115 21.3682 49.0846 21.4648 49.6934 21.4648C 50.4238 21.4648 50.9824 21.3252 51.3691 21.0459C 51.763 20.7666 51.96 20.3512 51.96 19.7998C 51.96 19.4919 51.874 19.2197 51.7021 18.9834C 51.5303 18.7399 51.276 18.5072 50.9395 18.2852C 50.61 18.0632 49.9333 17.7087 48.9092 17.2217C 47.9495 16.7705 47.2298 16.3372 46.75 15.9219C 46.2702 15.5065 45.887 15.0231 45.6006 14.4717C 45.3141 13.9202 45.1709 13.2757 45.1709 12.5381C 45.1709 11.1488 45.64 10.0566 46.5781 9.26172C 47.5234 8.4668 48.8268 8.06934 50.4883 8.06934C 51.3047 8.06934 52.0817 8.16602 52.8193 8.35938C 53.5641 8.55273 54.3411 8.82487 55.1504 9.17578L 54.0762 11.7646C 53.2383 11.4209 52.5436 11.181 51.9922 11.0449C 51.4479 10.9089 50.9108 10.8408 50.3809 10.8408C 49.7507 10.8408 49.2673 10.9876 48.9307 11.2812C 48.5941 11.5749 48.4258 11.958 48.4258 12.4307C 48.4258 12.7243 48.4938 12.9821 48.6299 13.2041C 48.766 13.4189 48.9808 13.6302 49.2744 13.8379C 49.5752 14.0384 50.2806 14.4036 51.3906 14.9336C 52.8587 15.6354 53.8649 16.3408 54.4092 17.0498C 54.9535 17.7516 55.2256 18.6146 55.2256 19.6387ZM 67.1172 24L 58.0723 24L 58.0723 8.29492L 67.1172 8.29492L 67.1172 11.0234L 61.4023 11.0234L 61.4023 14.4717L 66.7197 14.4717L 66.7197 17.2002L 61.4023 17.2002L 61.4023 21.25L 67.1172 21.25L 67.1172 24ZM 82.1777 24L 78.8477 24L 78.8477 11.0664L 74.583 11.0664L 74.583 8.29492L 86.4424 8.29492L 86.4424 11.0664L 82.1777 11.0664L 82.1777 24ZM 98.4736 24L 97.335 20.2617L 91.6094 20.2617L 90.4707 24L 86.8828 24L 92.4258 8.23047L 96.4971 8.23047L 102.062 24L 98.4736 24ZM 96.54 17.4688C 95.4873 14.0814 94.8929 12.1657 94.7568 11.7217C 94.6279 11.2777 94.5348 10.9268 94.4775 10.6689C 94.2412 11.5856 93.5645 13.8522 92.4473 17.4688L 96.54 17.4688ZM 104.049 24L 104.049 8.29492L 107.379 8.29492L 107.379 21.25L 113.749 21.25L 113.749 24L 104.049 24ZM 129.121 24L 125.34 24L 121.226 17.3828L 119.818 18.3926L 119.818 24L 116.488 24L 116.488 8.29492L 119.818 8.29492L 119.818 15.4814L 121.129 13.6338L 125.383 8.29492L 129.078 8.29492L 123.6 15.2451L 129.121 24ZM 131.098 24L 131.098 8.29492L 134.428 8.29492L 134.428 24L 131.098 24ZM 152.313 24L 148.081 24L 141.249 12.1191L 141.152 12.1191C 141.288 14.2174 141.356 15.7142 141.356 16.6094L 141.356 24L 138.381 24L 138.381 8.29492L 142.581 8.29492L 149.402 20.0576L 149.478 20.0576C 149.37 18.0166 149.316 16.5736 149.316 15.7285L 149.316 8.29492L 152.313 8.29492L 152.313 24ZM 162.239 15.1807L 168.47 15.1807L 168.47 23.3232C 167.46 23.6527 166.507 23.8818 165.612 24.0107C 164.724 24.1468 163.815 24.2148 162.884 24.2148C 160.513 24.2148 158.701 23.5202 157.448 22.1309C 156.202 20.7344 155.579 18.7327 155.579 16.126C 155.579 13.5908 156.302 11.6143 157.749 10.1963C 159.203 8.77832 161.215 8.06934 163.786 8.06934C 165.397 8.06934 166.951 8.3916 168.448 9.03613L 167.342 11.7002C 166.196 11.1273 165.004 10.8408 163.765 10.8408C 162.325 10.8408 161.172 11.3242 160.306 12.291C 159.439 13.2578 159.006 14.5576 159.006 16.1904C 159.006 17.8949 159.353 19.1982 160.048 20.1006C 160.75 20.9958 161.767 21.4434 163.099 21.4434C 163.793 21.4434 164.499 21.3717 165.215 21.2285L 165.215 17.9521L 162.239 17.9521L 162.239 15.1807Z"/>
</defs>
</svg>
